<svg width="100%" height="100%" viewBox="0 0 32 32" fill="none" xmlns="http://www.w3.org/2000/svg">
<path d="M7.19995 10.2C7.19995 12.1 7.79995 14 8.99995 15.5L11.3 18.5C11.7 19 11.8 19.5 11.8 20.1V22.7H20.3V20.1C20.3 19.5 20.5 19 20.8 18.5L23.1 15.5C24.3 14 24.9 12.1 24.9 10.2C24.9 5.4 21 1.5 16.2 1.5H16C11.1 1.5 7.19995 5.4 7.19995 10.2Z" stroke="currentColor" stroke-width="1.5" stroke-miterlimit="10" stroke-linecap="round" stroke-linejoin="round"/>
<path d="M20.2998 22.7002H11.7998V26.6002H20.2998V22.7002Z" stroke="currentColor" stroke-width="1.5" stroke-miterlimit="10" stroke-linecap="round" stroke-linejoin="round"/>
<path d="M20.1998 26.5996H11.7998L14.1998 30.4996H17.7998L20.1998 26.5996Z" stroke="currentColor" stroke-width="1.5" stroke-miterlimit="10" stroke-linecap="round" stroke-linejoin="round"/>
<path d="M15.9998 5.40039C18.8998 5.40039 21.2998 7.80039 21.2998 10.7004" stroke="currentColor" stroke-width="1.5" stroke-miterlimit="10" stroke-linecap="round" stroke-linejoin="round"/>
</svg>
