<svg width="100%" height="100%" viewBox="0 0 32 32" fill="none" xmlns="http://www.w3.org/2000/svg">
<path d="M15.4 27.2C8.40005 27.2 2.80005 21.6 2.80005 14.6C2.80005 7.6 8.40005 2 15.4 2C22.4 2 28 7.6 28 14.6" stroke="currentColor" stroke-width="1.5" stroke-miterlimit="10" stroke-linecap="round" stroke-linejoin="round"/>
<path d="M13.1001 21.3998V7.7998C13.1001 7.7998 13.1001 7.7998 16.6001 7.7998C20.1001 7.7998 20.1001 11.2998 20.1001 11.2998C20.1001 11.2998 20.1001 14.7998 16.6001 14.7998C14.2001 14.7998 11.7001 14.7998 10.6001 14.7998" stroke="currentColor" stroke-width="1.5" stroke-miterlimit="10" stroke-linecap="round" stroke-linejoin="round"/>
<path d="M16.6001 18.0996H10.6001" stroke="currentColor" stroke-width="1.5" stroke-miterlimit="10" stroke-linecap="round" stroke-linejoin="round"/>
<path d="M29.2001 25.3996C28.9001 21.0996 24.7001 17.5996 24.7001 17.5996C24.7001 17.5996 20.5001 20.9996 20.2001 25.3996C20.2001 25.5996 20.2001 25.6996 20.2001 25.8996C20.2001 28.3996 22.2001 30.3996 24.7001 30.3996C27.2001 30.3996 29.2001 28.3996 29.2001 25.8996C29.2001 25.6996 29.2001 25.5996 29.2001 25.3996Z" stroke="currentColor" stroke-width="1.5" stroke-miterlimit="10" stroke-linecap="round" stroke-linejoin="round"/>
</svg>
