<svg width="100%" height="100%" viewBox="0 0 32 32" fill="none" xmlns="http://www.w3.org/2000/svg">
<path d="M3.96533 23.2737V16.5155H9.74057L12.6896 13.5664H16.4988V23.028" stroke="currentColor" stroke-width="1.5" stroke-miterlimit="10" stroke-linecap="round" stroke-linejoin="round"/>
<path d="M16.4995 23.2754H2V27.0846H16.4995" stroke="currentColor" stroke-width="1.5" stroke-miterlimit="10" stroke-linecap="round" stroke-linejoin="round"/>
<path d="M8.88168 3H5.93262V16.5165H8.88168V3Z" stroke="currentColor" stroke-width="1.5" stroke-miterlimit="10" stroke-linecap="round" stroke-linejoin="round"/>
<path d="M14.6559 13.5676V5.94922H22.2743V8.7754" stroke="currentColor" stroke-width="1.5" stroke-miterlimit="10" stroke-linecap="round" stroke-linejoin="round"/>
<path d="M19.4491 19.3419V11.4777C19.4491 10.0032 20.6779 8.77441 22.1524 8.77441H22.521C23.9956 8.77441 25.2243 10.0032 25.2243 11.4777V11.6006" stroke="currentColor" stroke-width="1.5" stroke-miterlimit="10" stroke-linecap="round" stroke-linejoin="round"/>
<path d="M25.0382 21.4409L25.7252 21.6772C25.8779 21.7559 26.0305 21.7559 26.1069 21.8346L26.7176 22.1496L27.0229 22.7795C27.0992 22.937 27.1756 23.0157 27.1756 23.1732L27.4046 23.8819L27.1756 24.5906C27.1756 24.748 27.0992 24.8268 27.0229 24.9843L26.7176 25.6142L26.1069 25.9291C25.9542 26.0079 25.8779 26.0866 25.7252 26.0866L25.0382 26.4016L24.3511 26.1654C24.1985 26.0866 24.0458 26.0866 23.9695 26.0079L23.3588 25.6929L23.0534 25.063C22.9771 24.9055 22.9008 24.8268 22.9008 24.6693L22.6718 23.9606L22.9008 23.252C22.9771 23.0945 22.9771 23.0157 23.0534 22.8583L23.3588 22.2283L23.9695 21.9134C24.1221 21.8346 24.1985 21.7559 24.3511 21.7559L25.0382 21.4409ZM25.4962 19H24.6565C24.3511 19 24.1221 19.2362 24.0458 19.5512L23.8931 20.2598C23.6641 20.3386 23.4351 20.4173 23.2061 20.5748L22.6718 20.1811C22.5954 20.1024 22.4427 20.1024 22.2901 20.1024C22.1374 20.1024 21.9847 20.1811 21.8321 20.2598L21.2214 20.8898C20.9924 21.126 20.9924 21.4409 21.145 21.6772L21.5267 22.2283C21.4504 22.4646 21.2977 22.7008 21.2214 22.937L20.5344 23.0157C20.229 23.0945 20 23.3307 20 23.6457V24.5118C20 24.8268 20.229 25.063 20.5344 25.1417L21.2214 25.2992C21.2977 25.5354 21.374 25.7717 21.5267 26.0079L21.2214 26.4016C21.0687 26.6378 21.0687 26.9528 21.2977 27.189L21.9084 27.8189C21.9847 27.8976 22.1374 27.9764 22.3664 27.9764C22.5191 27.9764 22.5954 27.8976 22.7481 27.8976L23.3588 27.5039C23.5878 27.5827 23.8168 27.7402 23.9695 27.7402L24.0458 28.4488C24.1221 28.7638 24.3511 29 24.6565 29H25.4962C25.8015 29 26.0305 28.7638 26.1069 28.4488L26.2595 27.7402C26.4886 27.6614 26.7176 27.5827 26.9466 27.4252L27.4809 27.8189C27.5573 27.8976 27.7099 27.8976 27.8626 27.8976C28.0153 27.8976 28.1679 27.8189 28.3206 27.7402L28.9313 27.1102C29.1603 26.874 29.1603 26.5591 29.0076 26.3228L28.4733 25.7717C28.5496 25.5354 28.7023 25.2992 28.7786 25.063L29.4656 24.9843C29.771 24.9055 30 24.6693 30 24.3543V23.4882C30 23.1732 29.771 22.937 29.4656 22.8583L28.7786 22.7008C28.7023 22.4646 28.626 22.2283 28.4733 21.9921L28.855 21.4409C29.0076 21.2047 29.0076 20.8898 28.7786 20.6535L28.1679 20.0236C28.0916 19.9449 27.9389 19.8661 27.7099 19.8661C27.5573 19.8661 27.4809 19.9449 27.3282 19.9449L26.7939 20.3386C26.5649 20.1811 26.3359 20.1024 26.1069 20.0236L26.0305 19.4724C26.0305 19.1575 25.8015 19 25.4962 19Z" fill="currentColor"/>
</svg>
