<svg width="132" height="64" viewBox="0 0 132 64" fill="none" xmlns="http://www.w3.org/2000/svg">
<path d="M108.01 38.5154C107.891 38.5202 107.772 38.5015 107.66 38.4602C107.549 38.4188 107.446 38.3557 107.358 38.2745C107.271 38.1933 107.2 38.0955 107.15 37.9868C107.1 37.878 107.072 37.7605 107.068 37.6408V22.7009C107.124 22.5029 107.243 22.3288 107.406 22.2048C107.57 22.0808 107.769 22.0137 107.974 22.0137C108.178 22.0137 108.378 22.0808 108.541 22.2048C108.705 22.3288 108.823 22.5029 108.88 22.7009V37.6955C108.87 37.9339 108.768 38.1591 108.595 38.3226C108.423 38.4861 108.193 38.575 107.956 38.57L108.01 38.5154ZM109.768 19.1846H106.252C103.28 19.1846 103.117 21.5895 103.117 23.1382V37.3493C103.117 38.898 103.28 41.3029 106.252 41.3029H109.749C112.703 41.3029 112.884 38.898 112.884 37.3493V23.1382C112.884 21.5895 112.703 19.1846 109.749 19.1846" fill="white"/>
<path d="M43.8453 19.1846H51.9089V21.9357H48.0674V41.3029H43.8453V19.1846Z" fill="white"/>
<path d="M52.525 41.3029H56.6564L57.0551 35.4181H59.0665L59.447 41.3029H63.6872L61.3859 19.1846H54.7357L52.525 41.3029ZM57.2182 33.0495L57.943 21.9721H58.2511L58.9759 33.0495H57.2182Z" fill="white"/>
<path d="M69.65 33.5597V37.7319C69.6426 37.8234 69.6538 37.9155 69.683 38.0025C69.7122 38.0894 69.7588 38.1695 69.8199 38.2377C69.881 38.306 69.9553 38.3609 70.0382 38.3993C70.1212 38.4376 70.2111 38.4585 70.3023 38.4607C70.4866 38.4512 70.6599 38.3697 70.7851 38.2336C70.9104 38.0974 70.9778 37.9173 70.9728 37.7319V32.5758C70.9728 31.8835 70.846 31.1365 69.2695 31.1365H67.5661V28.6951H69.3782C70.5741 28.6951 71.009 28.4036 71.009 27.0553V22.6463C71.0114 22.5553 70.996 22.4648 70.9636 22.3799C70.9312 22.295 70.8825 22.2173 70.8202 22.1513C70.758 22.0853 70.6834 22.0323 70.6007 21.9953C70.5181 21.9583 70.429 21.9381 70.3386 21.9357C70.2481 21.9354 70.1586 21.954 70.0757 21.9903C69.9928 22.0266 69.9183 22.0799 69.857 22.1467C69.7956 22.2135 69.7488 22.2924 69.7194 22.3784C69.69 22.4644 69.6787 22.5556 69.6862 22.6463V26.2901H65.5004V23.1382C65.5004 21.5895 65.6816 19.1846 68.6352 19.1846H72.1506C75.1043 19.1846 75.2855 21.5895 75.2855 23.1382V26.6727C75.3389 27.0691 75.3027 27.4725 75.1797 27.8529C75.0566 28.2333 74.8498 28.5808 74.5747 28.8697C74.2995 29.1586 73.9631 29.3814 73.5905 29.5215C73.2179 29.6616 72.8186 29.7154 72.4224 29.6789V29.8976C72.8218 29.8461 73.2277 29.8895 73.6073 30.0244C73.987 30.1593 74.3298 30.382 74.6083 30.6744C74.8868 30.9668 75.0932 31.3208 75.2108 31.708C75.3284 32.0953 75.354 32.5048 75.2855 32.9038V37.3493C75.2855 38.898 75.1043 41.3029 72.1506 41.3029H68.5446C65.591 41.3029 65.4098 38.898 65.4098 37.3493V33.5597H69.65Z" fill="white"/>
<path d="M77.9843 19.1846H87.7694V41.3029H83.8191V21.9357H81.9165V41.3029H77.9843V19.1846Z" fill="white"/>
<path d="M90.8691 41.3029H95.0912V33.7783H97.5013C100.473 33.7783 100.944 31.3916 100.944 29.8247V23.1382C100.944 21.5895 100.473 19.1846 97.5013 19.1846H90.8691V41.3029ZM95.0912 31.3551V21.9357H96.1966C96.6677 21.9357 96.9939 22.3365 96.9939 23.0289V30.3166C96.9939 31.009 96.6677 31.428 96.1966 31.428L95.0912 31.3551Z" fill="white"/>
<path d="M126.385 19.1846H131.894V41.3029H127.654V27.438H127.509L125.334 41.3029H121.946L119.771 27.438H119.626V41.3029H115.386V19.1846H120.877L123.631 34.7257L126.385 19.1846Z" fill="white"/>
<path d="M34.8207 21.426C34.7927 23.4524 34.5742 25.4716 34.1684 27.4566C34.2507 24.5839 34.0075 21.711 33.4436 18.8935C32.7132 15.6783 31.568 12.5729 30.0369 9.65628C28.5202 12.5673 27.393 15.6671 26.6846 18.8753C26.1299 21.7439 25.8688 24.6621 25.9054 27.5842C25.4443 24.8159 25.2561 22.0087 25.3437 19.2032C25.4922 16.63 25.899 14.0785 26.5578 11.5875C27.4018 8.66013 28.5688 5.8368 30.0369 3.17018C31.5346 5.76271 32.715 8.52783 33.5523 11.4053C34.4358 14.6702 34.8627 18.0428 34.8207 21.426ZM30.055 38.6069C28.8983 36.3514 28.278 33.8567 28.243 31.3191C28.2474 28.8067 28.8699 26.3344 30.055 24.1225C31.1223 26.2641 31.7099 28.6149 31.7765 31.0094C31.8227 33.6496 31.199 36.2581 29.9644 38.5887L30.055 38.6069ZM35.1107 11.4418C34.0667 7.35716 32.3254 3.48576 29.9644 0C27.9289 3.09702 26.3311 6.46334 25.2169 10.0024C23.8578 14.6764 23.451 19.5782 24.0209 24.414C24.4583 27.58 25.2736 30.6814 26.449 33.6512C27.4092 35.9155 28.6253 38.0613 30.0732 40.0462C33.1632 35.5786 35.1622 30.4415 35.908 25.0517C36.5989 20.5132 36.3522 15.8802 35.1831 11.4418" fill="white"/>
<path d="M21.8658 41.303V48.2628C23.0275 47.0979 24.6012 46.4438 26.2419 46.4438C27.8826 46.4438 29.4563 47.0979 30.618 48.2628C31.1949 48.8356 31.653 49.5179 31.9656 50.2701C32.2782 51.0222 32.4392 51.8293 32.4392 52.6446C32.4392 53.4598 32.2782 54.2669 31.9656 55.019C31.653 55.7712 31.1949 56.4535 30.618 57.0263C28.2953 59.3505 25.1518 60.6553 21.8748 60.6553C18.5979 60.6553 15.4544 59.3505 13.1317 57.0263C11.105 55.0003 9.84429 52.3273 9.56647 49.4674C9.28865 46.6075 10.0111 43.7397 11.6096 41.3576C12.0514 40.6979 12.5616 40.0872 13.1317 39.5357C14.2793 38.3778 15.6435 37.4597 17.1456 36.8343C18.6477 36.2089 20.2581 35.8886 21.8839 35.8918V19.2939C18.2475 19.3039 14.6706 20.2223 11.4748 21.9666C8.27889 23.7109 5.56423 26.2264 3.57483 29.2869C1.58544 32.3474 0.383672 35.8571 0.0775799 39.5003C-0.228512 43.1436 0.370662 46.8062 1.82124 50.1589C3.27181 53.5116 5.52832 56.4493 8.38788 58.708C11.2475 60.9666 14.6204 62.4753 18.2036 63.0984C21.7868 63.7216 25.4678 63.4396 28.9158 62.278C32.3637 61.1163 35.4705 59.1113 37.9568 56.4433V41.303H21.8658Z" fill="white"/>
<path d="M127.943 58.1928C127.943 60.288 126.982 60.6706 124.554 60.6706H122.325V51.069H124.554V54.7129H124.935C127.127 54.7129 127.943 55.2413 127.943 57.1543V58.1928ZM109.315 52.8727H107.63V60.6706H105.491V52.8727H103.679V51.0508H109.315V52.8727ZM92.1365 57.2454C92.1365 59.1949 91.158 59.7232 88.9473 59.7232V60.6706H86.7909V59.7232C84.5802 59.7232 83.5836 59.1949 83.5836 57.2454V54.2392C83.5836 52.2897 84.544 51.7796 86.7909 51.7796V51.069H88.9473V51.7796C91.1942 51.7796 92.1365 52.2897 92.1365 54.2392V57.2454ZM71.914 52.8727H68.8516V54.6947H71.5878V56.5166H68.8516V58.7758H71.914V60.5978H66.4778V51.0508H71.914V52.8727ZM53.3948 60.6706H51.166V56.462H50.0244V60.6706H47.7774V51.069H50.0244V54.7129H51.166V51.069H53.3948V60.6706ZM131.893 48.6641H43.8453V63.4218H131.893V48.6641ZM85.7581 54.1299V57.209C85.7581 57.7738 85.9393 57.9013 86.4285 57.9013H86.7909V53.474H86.4285C85.9393 53.474 85.7581 53.6197 85.7581 54.1845V54.1299ZM125.062 56.462H124.554V58.9762H125.062C125.551 58.9762 125.696 58.8487 125.696 58.3021V57.1361C125.696 56.5895 125.551 56.462 125.062 56.462ZM89.2916 53.474H88.9473V57.956H89.2916C89.7989 57.956 89.9802 57.8102 89.9802 57.2454V54.1663C89.9802 53.6015 89.7989 53.474 89.2916 53.474Z" fill="white"/>
</svg>
