<svg width="100%" height="100%" viewBox="0 0 29 30" fill="none" xmlns="http://www.w3.org/2000/svg">
<path d="M28.3515 0.607948C28.2188 0.512865 28.0598 0.459961 27.8741 0.459961C27.7149 0.459961 27.5556 0.512865 27.4229 0.607948L1.07686 18.2247C0.944199 18.3171 0.83811 18.4412 0.785046 18.5838C0.70545 18.7291 0.67884 18.8876 0.705372 19.0434C0.731904 19.2019 0.784825 19.3524 0.890953 19.4792C0.970549 19.6033 1.10325 19.7011 1.26244 19.7566L8.7712 22.3978L11.2651 29.1064C11.3181 29.2648 11.4242 29.4023 11.5569 29.5026C11.6895 29.6003 11.8754 29.6558 12.0346 29.6611C12.1938 29.6637 12.3528 29.6187 12.4854 29.5342C12.6181 29.4497 12.7242 29.331 12.8038 29.1857L14.8203 24.9861L23.7615 28.5517C23.8676 28.6098 24.0003 28.6415 24.133 28.6415C24.2657 28.6415 24.3984 28.6098 24.5311 28.5517C24.6372 28.4856 24.7432 28.3959 24.7963 28.2929C24.8759 28.1873 24.9291 28.0684 24.9557 27.9442L28.6964 1.3474C28.6964 1.20477 28.6701 1.06478 28.6171 0.935357C28.564 0.805938 28.4576 0.695107 28.3515 0.607948ZM12.1936 26.7557L10.2568 21.4733C10.2038 21.3571 10.1508 21.2514 10.0712 21.1643C9.96512 21.0771 9.859 21.0111 9.75287 20.9715L3.4648 18.6472L22.7267 5.75815L10.7873 18.9641C10.6281 19.1279 10.5486 19.3446 10.5486 19.5717C10.5486 19.7988 10.6281 20.018 10.7873 20.1791C10.9465 20.3138 11.159 20.3905 11.3713 20.3905C11.4774 20.3905 11.6101 20.3641 11.7162 20.3139C11.8223 20.2637 11.9284 20.1924 12.008 20.1L22.6208 8.34663L13.6264 23.4542L12.1936 26.7557ZM23.4431 26.7557L15.696 23.692L26.4413 5.59968L23.4431 26.7557Z" fill="currentColor"/>
</svg>
