<svg width="100%" height="100%" viewBox="0 0 33 33" fill="none" xmlns="http://www.w3.org/2000/svg">
<path d="M19.1813 6.49688L18.8719 4.5375C18.6656 3.7125 17.9438 3.09375 17.1188 3.09375H14.6437C13.8187 3.09375 13.0969 3.7125 12.9938 4.5375L12.6844 6.49688C12.0656 6.70313 11.4469 7.0125 10.8281 7.32187L9.17812 6.1875C8.86875 5.98125 8.55938 5.87812 8.14688 5.87812C7.73438 5.87812 7.21875 6.08437 6.90937 6.39375L5.25937 8.14688C4.64062 8.6625 4.5375 9.59063 5.05313 10.3125L6.1875 11.9625C5.87812 12.5813 5.56875 13.2 5.46563 13.8187L3.50625 14.1281C2.68125 14.3344 2.0625 15.0562 2.0625 15.8812V18.3562C2.0625 19.1812 2.68125 19.9031 3.50625 20.0062L5.46563 20.3156C5.67188 20.9344 5.98125 21.5531 6.29062 22.1719L5.15625 23.8219C4.64062 24.5438 4.74375 25.4719 5.3625 25.9875L7.11563 27.7406C7.425 28.05 7.8375 28.2562 8.35313 28.2562C8.6625 28.2562 9.075 28.1531 9.38438 27.9469L11.0344 26.8125C11.6531 27.1219 12.2719 27.3281 12.8906 27.5344L13.2 29.4938C13.3031 30.3188 14.025 30.9375 14.85 30.9375H17.325C18.15 30.9375 18.8719 30.3188 18.975 29.4938L19.2844 27.5344C19.9031 27.3281 20.625 27.0187 21.1406 26.7094L22.7906 27.8438C23.1 28.05 23.4094 28.1531 23.8219 28.1531C24.2344 28.1531 24.75 27.9469 25.0594 27.6375L26.8125 25.8844C27.4313 25.2656 27.5344 24.3375 27.0188 23.7188L25.8844 22.0687C26.1938 21.45 26.5031 20.8313 26.7094 20.2125L28.6687 19.9031C29.4937 19.8 30.1125 19.0781 30.1125 18.2531" stroke="currentColor" stroke-width="1.5" stroke-miterlimit="10" stroke-linecap="square"/>
<path d="M15.9843 21.0379C18.1486 21.0379 19.903 19.2372 19.903 17.016C19.903 14.7948 18.1486 12.9941 15.9843 12.9941C13.82 12.9941 12.0656 14.7948 12.0656 17.016C12.0656 19.2372 13.82 21.0379 15.9843 21.0379Z" stroke="currentColor" stroke-width="1.5" stroke-miterlimit="10" stroke-linecap="square"/>
<path d="M31.0405 9.59102C30.7311 5.46602 26.8124 2.16602 26.8124 2.16602C26.8124 2.16602 22.8936 5.46602 22.5842 9.59102C22.5842 9.79727 22.5842 9.90039 22.5842 10.1066C22.5842 12.4785 24.5436 14.3348 26.8124 14.3348C29.0811 14.3348 31.0405 12.3754 31.0405 10.1066C31.0405 9.90039 31.0405 9.69414 31.0405 9.59102Z" stroke="currentColor" stroke-width="1.5" stroke-miterlimit="10" stroke-linecap="round" stroke-linejoin="round"/>
</svg>
